<?xml version="1.0" encoding="iso-8859-1"?>
<!-- Generator: Adobe Illustrator 19.0.0, SVG Export Plug-In . SVG Version: 6.00 Build 0)  -->
<svg version="1.1" id="Capa_1" xmlns="http://www.w3.org/2000/svg" xmlns:xlink="http://www.w3.org/1999/xlink" x="0px" y="0px"
	 viewBox="0 0 512 512" style="enable-background:new 0 0 512 512;" xml:space="preserve">
<g>
	<g>
		<path d="M507.784,188.296l-53.504-37.927l-27.921-74.124c-0.91-2.415-2.718-4.385-5.046-5.498l-146-69.771
			c-3.015-1.439-6.55-1.28-9.423,0.428l-82.998,49.319c-1.54,0.915-2.805,2.226-3.665,3.797l-46.064,84.206L3.674,244.554
			c-2.325,1.9-3.673,4.742-3.673,7.744v159.481c0,1.519,0.346,3.018,1.012,4.383l0.106,0.218l43.894,90.002
			c1.702,3.49,5.226,5.618,8.985,5.618c0.716,0,86.497-18.895,86.497-18.895l56.404,18.4c1.001,0.327,2.048,0.493,3.102,0.493h250
			c3.554,0,6.841-1.887,8.634-4.955l52-89.018c0.894-1.531,1.365-3.271,1.365-5.044V287.737v-91.283
			C512.001,193.212,510.429,190.171,507.784,188.296z M195.461,66.519l64.531-38.346l-1.849,66.579l-63.071,45.05l-38.418-2.343
			L195.461,66.519z M20.001,287.565l25.43,43.461l-25.43,43.924V287.565z M305.827,491.999l57.811-24.021l48.503,24.021H305.827z
			 M492.001,410.275l-44.835,76.752l-78.727-38.989c-2.589-1.282-5.607-1.382-8.275-0.273L253.702,492h-52.111l-57.488-18.754
			c-1.699-0.554-3.516-0.642-5.262-0.257l-79.306,17.545L21.43,412.4c0,0,44.648-77.18,44.817-77.589
			c1.181-2.864,0.976-6.145-0.614-8.862l-42.038-71.846l119.238-97.449l54.56,3.327c2.316,0.141,4.511-0.571,6.421-1.844l70-50
			c2.548-1.82,4.097-4.729,4.184-7.859l2.08-74.857l128.983,61.637l25.921,68.815l-21.351,32.654
			c-2.429,3.715-2.119,8.588,0.763,11.964l77.607,90.933V410.275z M492.001,260.615l-57.532-67.411l14.46-22.114l43.072,30.533
			V260.615z"/>
	</g>
</g>
<g>
	<g>
		<path d="M247.798,423.99l-16.001-78c-0.012-0.058-0.029-0.113-0.042-0.171c-0.934-4.182-4.738-7.464-8.999-7.785
			c-0.049-0.004-90.18-5.528-90.18-5.528l-8.299-50.547l68.699-21.413c4.662-1.453,7.592-6.06,6.933-10.898c0,0-5.988-43.909-6-44
			c-1.698-12.453-21.571-10.167-19.816,2.702l4.857,35.619l-20.182,6.29c0,0-4.932-26.071-4.942-26.119
			c-2.325-12.291-22.068-9.052-19.651,3.718l5.372,28.393l-28.068,8.748c0,0-31.398,0-31.478,0c-12.778,0-12.951,20,0,20h24.508
			l9.095,55.395c0,0-36.42,71.882-36.523,72.085c-5.743,11.336,11.998,20.573,17.841,9.04l25.044-49.429
			c0,0,10.219,49.817,10.24,49.918c2.534,12.353,22.202,8.703,19.592-4.018l-13.377-65.212l69.784,4.273
			c0,0-31.08,61.343-31.124,61.429c-5.656,11.164,12.017,20.536,17.841,9.039l25.044-49.429c0,0,10.216,49.8,10.24,49.918
			C230.787,440.588,250.4,436.675,247.798,423.99z"/>
	</g>
</g>
<g>
	<g>
		<path d="M468.95,343.558c-0.343-0.602-92.189-161.548-92.189-161.548c-2.74-4.788-9.038-6.368-13.65-3.73
			c-4.79,2.74-6.46,8.86-3.72,13.65l44.27,77.58l-24.89,18.66l-20.77-5.04c0,0,0-32.03,0-32.13c0-12.82-20-12.95-20,0v33.35
			l-28.24,11.82c0,0-12.78-25.56-12.82-25.64c-5.69-11.39-23.69-2.66-17.88,8.94l17,34c2.35,4.71,7.95,6.79,12.8,4.75l29.14-12.19
			v38.74l-29.11,40.38c-1.38,1.91-2.03,4.24-1.86,6.58c0,0,2.99,40.86,3,41c0.92,12.66,20.89,11.47,19.94-1.46l-2.73-37.37
			l18.53-25.71l11.04,25.75c0.35,0.83,0.82,1.6,1.38,2.31c0,0,23.89,29.86,24,30c7.92,9.9,23.77-2.31,15.62-12.5l-23.15-28.94
			l-16.66-38.861v-42.24c0,0,20.62,5,20.64,5.01c2.69,0.65,6.01,0.04,8.36-1.72l26.65-19.99l37.93,66.46
			c3.147,5.498,9.027,5.724,13.353,3.226C469.263,354.194,472.035,348.964,468.95,343.558z"/>
	</g>
</g>
<g>
	<g>
		<circle cx="348.001" cy="152" r="10"/>
	</g>
</g>
<g>
</g>
<g>
</g>
<g>
</g>
<g>
</g>
<g>
</g>
<g>
</g>
<g>
</g>
<g>
</g>
<g>
</g>
<g>
</g>
<g>
</g>
<g>
</g>
<g>
</g>
<g>
</g>
<g>
</g>
</svg>
