<?xml version="1.0" standalone="no"?>
<!DOCTYPE svg PUBLIC "-//W3C//DTD SVG 20010904//EN"
 "http://www.w3.org/TR/2001/REC-SVG-20010904/DTD/svg10.dtd">
<svg version="1.0" xmlns="http://www.w3.org/2000/svg"
 width="700.000000pt" height="700.000000pt" viewBox="0 0 700.000000 700.000000"
 preserveAspectRatio="xMidYMid meet">
<metadata>
Created by potrace 1.14, written by Peter Selinger 2001-2017
</metadata>
<g transform="translate(0.000000,700.000000) scale(0.100000,-0.100000)"
fill="#000000" stroke="none">
<path d="M3655 6991 c-11 -5 -130 -74 -264 -155 -134 -80 -244 -146 -246 -146
-1 0 -51 -30 -111 -66 -60 -37 -123 -74 -140 -84 -55 -32 -188 -111 -249 -148
-33 -20 -76 -45 -95 -55 -79 -42 -76 -37 -395 -622 -21 -38 -88 -160 -148
-270 -60 -110 -126 -231 -146 -269 -30 -57 -51 -81 -130 -145 -51 -42 -99 -81
-105 -86 -6 -6 -85 -71 -176 -145 -177 -144 -370 -302 -435 -355 -67 -55 -220
-180 -471 -385 -132 -107 -241 -197 -244 -200 -3 -3 -39 -32 -80 -65 -171
-137 -196 -160 -209 -193 -8 -20 -11 -332 -9 -1152 l3 -1125 66 -135 c311
-633 539 -1102 539 -1109 0 -4 16 -22 35 -41 31 -30 41 -34 88 -34 28 1 146
23 262 49 116 26 221 49 235 51 14 3 33 7 42 10 10 3 30 7 45 10 16 3 66 14
113 24 118 27 410 91 440 96 14 3 30 6 37 9 7 2 72 -15 145 -39 73 -24 252
-83 397 -130 l263 -86 1735 0 c1732 0 1735 0 1772 21 36 20 52 45 231 354 26
44 159 271 296 505 l249 425 3 1518 c2 1367 1 1522 -14 1552 -13 29 -146 131
-330 255 -13 8 -64 44 -114 80 -49 36 -143 103 -208 149 -64 45 -120 88 -123
95 -4 6 -91 236 -194 511 -103 275 -196 512 -206 526 -18 25 -55 46 -284 154
-60 29 -173 83 -250 120 -165 79 -303 145 -435 208 -94 44 -219 104 -475 227
-71 34 -166 79 -210 100 -44 21 -151 72 -239 114 -156 76 -221 95 -261 77z
m203 -351 c18 -10 322 -157 457 -220 44 -21 139 -66 210 -100 72 -34 171 -81
220 -105 99 -47 225 -107 475 -227 91 -43 213 -102 272 -130 87 -42 108 -56
113 -77 6 -25 58 -164 76 -206 5 -11 67 -175 138 -364 l129 -344 -28 -41
c-144 -211 -272 -417 -281 -451 -8 -31 -7 -49 3 -73 10 -24 208 -267 281 -344
7 -7 48 -56 92 -108 44 -52 84 -100 90 -106 5 -6 109 -127 230 -269 121 -142
259 -303 306 -358 l85 -100 0 -816 -1 -816 -296 -505 c-163 -278 -300 -512
-305 -522 -8 -14 -76 17 -514 234 -658 325 -606 301 -645 295 -18 -3 -360
-142 -761 -309 l-729 -303 -355 -2 -355 -1 -395 128 c-217 71 -407 131 -422
134 -14 2 -66 -5 -115 -15 -48 -11 -99 -22 -113 -25 -14 -3 -54 -12 -90 -20
-36 -9 -76 -18 -90 -20 -14 -3 -31 -7 -39 -10 -8 -2 -28 -7 -45 -10 -17 -3
-168 -35 -336 -73 l-305 -68 -49 101 c-28 56 -114 232 -191 391 -78 160 -172
351 -208 426 -37 75 -67 142 -67 149 0 7 125 229 278 493 152 263 291 506 309
539 47 90 44 99 -89 320 -32 54 -58 99 -58 102 0 3 -17 33 -39 68 -38 62 -296
500 -333 566 -10 18 -25 43 -32 55 -14 21 -6 29 202 199 119 97 231 188 247
202 17 13 124 101 240 196 116 94 280 228 365 298 85 70 202 165 260 212 58
47 116 95 130 107 14 12 59 49 100 82 l75 61 60 -5 c33 -2 105 -7 160 -10 55
-3 125 -8 155 -10 62 -5 232 -15 330 -20 38 -2 78 2 96 10 17 7 140 91 273
186 133 96 252 181 264 189 12 8 76 53 141 100 65 47 135 97 155 111 147 104
177 128 193 154 18 32 19 55 34 590 3 127 8 273 9 325 2 52 4 112 4 133 1 40
3 42 29 27z m-304 -75 c-1 -14 -5 -143 -9 -287 -4 -145 -9 -301 -10 -348 -2
-47 -4 -117 -4 -155 l-1 -70 -191 -135 c-105 -74 -196 -140 -202 -145 -7 -6
-115 -84 -241 -173 l-229 -163 -91 5 c-50 3 -136 9 -191 12 -121 8 -181 12
-217 13 l-27 1 43 78 c24 42 60 109 81 147 39 73 189 346 233 425 13 25 58
107 99 182 l74 137 107 64 c59 35 242 144 407 242 165 97 313 186 330 196 33
20 44 12 39 -26z m2691 -1980 c27 -20 147 -105 265 -189 l215 -152 1 -402 c1
-370 0 -401 -15 -385 -30 33 -342 399 -373 437 -10 11 -26 30 -36 41 -11 11
-84 96 -163 190 -79 93 -155 183 -169 198 -14 16 -25 32 -25 35 0 4 43 73 95
154 l95 146 30 -18 c16 -11 52 -35 80 -55z m-5938 -1572 c11 -21 70 -123 131
-227 62 -103 112 -190 112 -192 0 -2 16 -28 35 -58 19 -30 35 -57 35 -60 0 -2
-55 -98 -121 -213 -169 -289 -178 -304 -196 -340 -9 -18 -20 -33 -23 -33 -4 0
-7 261 -7 580 0 319 3 580 7 580 3 0 15 -17 27 -37z m5003 -2578 c170 -85 310
-156 310 -158 0 -2 -317 -3 -705 -3 -388 0 -705 3 -705 6 0 12 756 319 772
314 10 -3 157 -75 328 -159z"/>
<path d="M4701 5042 c-70 -35 -97 -110 -65 -177 40 -86 153 -105 216 -38 65
71 51 170 -32 214 -43 24 -75 24 -119 1z"/>
<path d="M4962 4560 c-40 -25 -72 -90 -65 -134 2 -17 15 -49 28 -71 12 -22 32
-56 43 -75 11 -19 108 -190 217 -380 108 -190 211 -370 227 -400 17 -30 34
-59 38 -65 4 -5 21 -35 38 -65 l30 -55 -160 -120 c-88 -66 -165 -123 -172
-127 -9 -5 -287 54 -291 62 0 0 0 107 -1 239 0 208 -2 242 -17 265 -55 83
-188 85 -238 3 -16 -27 -18 -57 -19 -276 0 -135 -2 -247 -4 -249 -2 -2 -69
-30 -147 -63 -79 -33 -153 -64 -164 -69 -74 -35 -61 -48 -168 166 -104 208
-119 226 -193 226 -73 0 -144 -66 -144 -134 0 -15 59 -145 133 -290 143 -284
161 -308 234 -308 21 0 112 33 226 81 106 44 200 83 210 86 16 5 17 -12 17
-258 l0 -264 -205 -284 c-113 -157 -207 -292 -210 -300 -7 -25 -8 -70 -1 -156
10 -128 15 -195 21 -265 3 -36 8 -100 10 -143 6 -89 21 -125 62 -153 37 -24
119 -24 156 1 51 33 60 66 53 190 -4 60 -8 126 -11 145 -2 19 -7 83 -10 142
-3 59 -8 116 -10 126 -2 11 13 43 33 72 20 29 44 62 52 74 95 137 164 226 170
219 5 -7 42 -89 105 -238 48 -112 64 -138 191 -294 7 -9 47 -59 89 -111 42
-52 90 -112 106 -132 33 -40 67 -56 116 -53 62 3 133 74 133 134 0 39 -26 77
-181 272 -86 107 -163 209 -172 225 -8 16 -62 139 -119 274 l-104 245 1 285
c0 177 4 284 10 284 6 -1 69 -16 140 -34 151 -36 194 -39 232 -15 16 10 105
76 199 146 94 71 173 129 176 129 6 0 78 -117 78 -126 0 -2 11 -22 25 -44 14
-22 38 -64 54 -92 16 -29 88 -156 161 -283 72 -126 146 -255 162 -285 65 -116
94 -140 162 -134 70 6 136 71 136 134 0 31 -16 60 -285 530 -130 228 -249 435
-263 460 -13 25 -50 88 -80 140 -30 52 -66 115 -80 140 -85 152 -549 962 -570
996 -32 51 -51 64 -110 70 -36 4 -54 0 -80 -16z"/>
<path d="M2439 4277 c-50 -33 -61 -61 -54 -137 5 -66 13 -127 19 -166 3 -12 8
-48 11 -80 4 -33 9 -68 11 -79 2 -11 6 -41 9 -66 3 -25 7 -55 9 -66 4 -18 -10
-24 -120 -57 -68 -20 -131 -39 -138 -42 -15 -6 -21 15 -52 186 -4 25 -8 47 -9
50 -1 3 -7 38 -14 78 -10 57 -19 79 -42 102 -70 69 -203 42 -230 -48 -9 -30
-7 -59 11 -152 12 -63 24 -126 26 -140 3 -14 7 -31 9 -38 2 -7 7 -34 11 -60 3
-26 7 -51 8 -56 0 -5 -82 -36 -184 -68 l-185 -59 -240 -3 c-169 -1 -247 -6
-265 -15 -78 -39 -89 -160 -19 -227 l30 -29 192 -1 192 -2 12 -53 c7 -30 15
-74 18 -99 5 -43 13 -92 21 -135 3 -11 9 -51 15 -90 15 -99 17 -106 22 -140 3
-16 13 -78 22 -136 l17 -106 -185 -364 c-310 -610 -327 -646 -327 -679 0 -96
113 -163 202 -119 34 17 47 39 152 246 213 422 240 473 247 465 6 -6 29 -119
110 -522 16 -80 36 -160 46 -178 41 -80 161 -86 228 -12 15 16 20 36 20 74 0
52 -2 66 -30 196 -9 41 -18 85 -21 97 -2 12 -31 154 -64 315 -33 161 -60 298
-60 305 0 8 13 11 38 8 20 -2 89 -7 152 -10 63 -3 142 -8 175 -10 59 -5 128
-9 335 -21 58 -3 123 -7 145 -9 22 -2 55 -4 73 -4 l33 -1 -221 -434 c-152
-300 -220 -444 -220 -466 0 -92 113 -163 197 -123 41 19 38 14 234 400 90 177
167 319 170 317 3 -2 9 -20 12 -41 12 -82 128 -630 138 -656 23 -55 96 -84
165 -66 18 5 46 26 64 46 31 35 32 39 26 97 -3 34 -10 79 -15 101 -6 22 -12
54 -15 70 -3 17 -13 62 -21 100 -12 57 -76 365 -91 440 -39 201 -78 376 -87
397 -17 40 -82 78 -137 79 -25 1 -63 2 -85 4 -22 2 -83 6 -135 9 -104 6 -224
14 -340 21 -41 2 -122 7 -180 10 -58 4 -127 8 -155 10 -27 2 -106 7 -175 11
-69 3 -128 8 -132 10 -5 4 -11 27 -24 109 -1 11 -12 79 -24 150 -12 72 -23
141 -25 155 -2 14 -13 79 -24 144 -11 65 -18 123 -15 127 2 5 19 12 37 18 18
5 104 31 192 59 88 28 285 89 439 137 153 47 289 93 303 102 13 9 31 29 39 45
21 40 21 78 -1 218 -3 21 -16 112 -30 215 -1 11 -5 45 -9 75 -4 30 -9 66 -11
80 -3 14 -7 45 -10 69 -8 61 -24 91 -64 118 -45 31 -107 31 -152 0z"/>
</g>
</svg>
